<?xml version="1.0" standalone="no"?>
<!DOCTYPE svg PUBLIC "-//W3C//DTD SVG 20010904//EN"
 "http://www.w3.org/TR/2001/REC-SVG-20010904/DTD/svg10.dtd">
<svg version="1.0" xmlns="http://www.w3.org/2000/svg"
 width="1500.000000pt" height="1500.000000pt" viewBox="0 0 1500.000000 1500.000000"
 preserveAspectRatio="xMidYMid meet">
<metadata>
Created by potrace 1.11, written by Peter Selinger 2001-2013
</metadata>
<g transform="translate(0.000000,1500.000000) scale(0.100000,-0.100000)"
fill="#000000" stroke="none">
<path d="M7173 13956 c-376 -375 -1834 -1824 -2653 -2636 -313 -311 -848 -842
-1187 -1180 l-619 -615 1 -2970 0 -2970 4785 0 4785 0 1 2972 1 2972 -801 795
c-441 437 -1060 1052 -1376 1366 -316 314 -972 966 -1458 1448 -486 482 -938
932 -1005 1000 -67 68 -129 127 -137 131 -11 6 -98 -75 -337 -313z"/>
<path d="M8770 2413 c-58 -8 -160 -36 -160 -44 0 -5 -3 -8 -7 -7 -18 5 -80
-38 -132 -92 -116 -119 -161 -261 -156 -484 3 -121 5 -146 19 -201 43 -174
162 -313 311 -366 65 -23 108 -29 200 -29 147 -1 270 45 362 136 47 47 117
156 128 201 45 175 51 359 17 493 -28 106 -83 203 -156 271 -43 41 -143 99
-179 104 -12 2 -33 6 -47 10 -29 7 -164 12 -200 8z m215 -91 c17 -5 44 -16 60
-23 77 -36 162 -129 190 -209 1 -3 4 -12 8 -20 10 -25 26 -93 33 -140 8 -56
11 -231 5 -245 -3 -5 -6 -15 -7 -22 -26 -168 -100 -288 -214 -345 -25 -13 -47
-25 -50 -28 -3 -3 -12 -6 -20 -7 -8 -2 -35 -6 -60 -11 -109 -20 -255 6 -333
59 -81 56 -153 167 -172 268 -2 9 -4 16 -5 16 -7 0 -13 101 -13 205 0 102 4
140 23 205 13 44 27 82 31 85 3 3 9 15 13 27 7 20 92 114 127 138 24 17 92 45
134 54 48 10 208 6 250 -7z"/>
<path d="M667 2402 c-89 -3 -95 -4 -100 -25 -2 -12 -30 -94 -61 -182 -32 -88
-59 -167 -61 -175 -2 -8 -9 -28 -16 -45 -6 -16 -13 -34 -15 -40 -1 -5 -30 -89
-64 -185 -34 -96 -77 -220 -96 -275 -19 -55 -37 -107 -41 -115 -8 -19 -8 -19
-18 -55 -4 -16 -11 -34 -15 -40 -4 -5 -10 -22 -13 -36 l-7 -26 137 1 136 1 13
38 c7 20 10 37 7 37 -3 0 -1 6 5 13 10 13 26 74 20 80 -2 2 2 10 8 18 7 8 15
29 19 46 3 18 12 36 18 40 6 4 105 7 218 7 l208 1 32 -100 c18 -55 34 -107 36
-116 1 -9 7 -27 12 -41 9 -24 10 -24 145 -25 75 0 136 0 136 2 0 2 -15 46 -34
99 -19 53 -32 96 -29 96 3 0 1 6 -4 13 -5 6 -20 41 -32 77 -12 36 -25 72 -28
80 -3 8 -7 20 -9 25 -4 14 -42 122 -63 180 -21 56 -31 84 -30 88 0 1 -9 27
-21 57 -12 30 -29 78 -37 105 -8 28 -19 54 -24 60 -5 5 -9 19 -9 31 0 13 -4
25 -8 28 -4 3 -14 28 -22 56 -8 28 -18 53 -22 56 -4 3 -8 16 -8 29 0 13 -4 27
-10 30 -5 3 -10 16 -10 28 -1 56 -41 65 -243 59z m80 -218 c-3 -3 1 -23 8 -45
8 -22 14 -42 14 -44 -1 -3 13 -49 29 -103 17 -53 44 -140 60 -192 16 -52 27
-97 25 -100 -2 -3 -70 -5 -149 -5 l-145 0 6 33 c3 18 15 61 26 95 12 34 22 67
23 72 7 29 28 102 32 115 3 8 5 16 5 18 -1 1 5 18 13 37 8 19 13 35 10 35 -3
0 -2 6 3 13 4 6 9 21 10 32 5 33 12 45 24 45 7 0 10 -3 6 -6z"/>
<path d="M1690 2395 c-82 -20 -120 -39 -171 -84 -70 -61 -102 -137 -100 -241
1 -75 9 -108 38 -159 44 -77 106 -125 257 -201 77 -39 150 -79 161 -88 84 -70
68 -179 -30 -209 -35 -11 -157 -10 -202 1 -13 3 -33 9 -45 12 -13 3 -29 6 -35
6 -7 1 -13 5 -13 10 0 4 -8 8 -18 8 -10 0 -37 9 -60 20 -70 34 -70 34 -67 -92
1 -62 3 -116 4 -120 1 -7 110 -45 151 -53 90 -17 241 -23 300 -10 14 2 39 8
55 11 81 17 182 91 227 164 38 63 50 209 22 279 -43 106 -105 158 -309 257
-167 83 -203 122 -182 203 24 94 152 111 341 45 38 -13 72 -24 75 -24 7 0 14
16 57 123 24 58 26 70 14 77 -18 12 -167 62 -195 67 -68 11 -226 10 -275 -2z"/>
<path d="M7650 2386 c-223 -65 -360 -238 -388 -491 -14 -121 -3 -250 30 -353
12 -37 27 -74 34 -82 7 -8 14 -19 15 -25 15 -70 190 -209 289 -228 14 -3 36
-8 50 -12 28 -7 222 -8 260 -1 14 3 41 8 61 10 72 11 89 22 89 61 0 39 1 38
-55 25 -78 -18 -111 -22 -198 -24 -48 -2 -90 1 -93 5 -2 4 -11 6 -19 3 -25
-10 -138 35 -195 77 -73 55 -137 150 -155 234 -4 17 -9 37 -12 45 -12 32 -17
225 -8 280 2 14 7 40 11 59 12 71 72 180 127 234 52 50 148 107 188 110 10 1
19 4 19 8 0 8 227 5 265 -4 35 -9 81 -25 112 -40 21 -10 37 -5 38 11 1 4 5 18
9 31 9 27 1 35 -54 52 -80 25 -121 31 -230 34 -95 2 -128 -1 -190 -19z"/>
<path d="M13382 2390 c-105 -28 -168 -64 -243 -141 -54 -55 -112 -141 -114
-169 0 -3 -4 -11 -8 -17 -5 -7 -10 -22 -13 -33 -2 -11 -6 -30 -9 -42 -15 -67
-18 -91 -20 -178 -1 -52 4 -123 10 -157 7 -35 10 -63 7 -63 -2 0 0 -6 6 -12 5
-7 13 -29 17 -48 4 -19 20 -58 36 -85 77 -136 191 -218 350 -251 28 -5 213 -5
249 0 14 2 44 7 67 10 80 12 93 21 93 67 0 32 -3 39 -12 32 -23 -18 -151 -36
-253 -36 -156 0 -258 37 -344 125 -23 22 -41 45 -41 49 0 4 -6 14 -13 21 -14
13 -46 89 -53 121 -2 10 -6 27 -9 37 -13 42 -16 70 -17 175 -1 103 6 166 20
190 4 6 8 18 9 28 11 69 111 205 185 250 75 46 140 62 258 61 122 0 142 -3
223 -34 29 -11 54 -20 57 -20 7 0 34 70 28 74 -96 58 -328 81 -466 46z"/>
<path d="M2275 2382 c3 -8 5 -17 5 -22 0 -5 6 -15 13 -22 6 -8 27 -43 46 -78
38 -75 93 -177 125 -235 12 -22 46 -85 75 -140 30 -55 69 -129 88 -163 l34
-64 2 -226 2 -227 123 -1 c67 -1 122 1 123 5 1 3 2 107 3 231 2 245 -2 223 66
345 10 18 33 62 51 96 18 35 35 66 38 69 4 3 15 23 26 45 11 22 38 74 61 115
22 41 58 107 78 145 21 39 47 85 58 103 l20 32 -34 1 c-40 1 -219 1 -234 0 -6
-1 -60 -99 -120 -218 -60 -120 -112 -220 -115 -223 -3 -3 -9 -14 -13 -25 -7
-17 -12 -12 -35 35 -68 137 -214 425 -217 429 -2 2 -64 4 -139 5 -109 1 -134
-2 -130 -12z"/>
<path d="M3480 2390 c-5 -3 -8 -269 -8 -593 l0 -587 21 -4 c12 -3 178 -4 368
-4 l346 1 0 104 c0 56 -3 104 -6 104 -3 1 -109 3 -236 4 -126 1 -232 3 -235 4
-3 0 -5 219 -5 486 1 429 -1 485 -15 486 -63 4 -223 3 -230 -1z"/>
<path d="M4439 2392 c-12 -2 -14 -63 -13 -415 1 -227 4 -431 7 -454 22 -148
159 -286 317 -319 19 -4 42 -9 50 -11 17 -4 182 -3 220 1 61 6 181 50 217 80
47 38 98 97 118 136 47 91 48 112 50 558 1 419 1 422 -19 423 -12 0 -68 1
-126 1 l-105 1 -5 -419 c-4 -367 -7 -423 -22 -454 -22 -45 -36 -62 -72 -85
-38 -25 -55 -28 -152 -29 -69 0 -86 3 -126 27 -48 28 -79 78 -92 150 -4 21 -7
211 -8 422 0 283 -3 385 -11 386 -43 2 -216 3 -228 1z"/>
<path d="M5714 2388 c-4 -6 -7 -1023 -4 -1164 0 -20 4 -21 112 -20 l113 1 -1
320 c-1 176 -3 385 -6 465 -3 80 -2 136 3 125 4 -11 38 -119 75 -240 36 -121
78 -256 92 -300 14 -44 26 -84 27 -90 0 -10 22 -79 33 -105 3 -8 7 -19 7 -25
1 -5 4 -17 7 -25 3 -8 11 -35 19 -60 7 -25 16 -50 21 -56 5 -7 50 -10 120 -10
l113 1 28 80 c15 44 29 85 30 90 5 19 28 90 34 105 3 8 7 20 8 25 7 30 88 273
96 287 5 10 9 25 9 33 0 8 4 23 9 33 6 9 29 74 51 145 23 70 43 127 45 127 2
0 2 -39 -1 -87 -8 -119 -11 -821 -4 -832 3 -4 57 -8 120 -8 l115 1 -1 588 c0
323 -3 591 -7 594 -7 7 -335 10 -341 3 -4 -6 -87 -261 -91 -282 -2 -9 -7 -23
-12 -30 -4 -6 -9 -16 -10 -22 -7 -28 -11 -41 -16 -55 -3 -8 -43 -129 -88 -267
-45 -139 -84 -251 -86 -250 -1 2 -4 16 -5 30 -1 15 -7 27 -12 27 -5 0 -7 3 -4
6 4 3 0 21 -8 40 -8 19 -12 34 -9 34 3 0 1 9 -5 21 -10 18 -55 157 -65 199 -2
8 -8 27 -14 43 -6 15 -8 27 -5 27 4 0 2 6 -4 13 -6 6 -10 15 -10 20 0 4 -12
42 -26 85 -14 42 -27 89 -30 104 -3 15 -8 33 -13 40 -4 7 -8 15 -8 18 0 3 -14
49 -30 103 -27 89 -31 97 -55 98 -122 5 -313 3 -316 -3z"/>
<path d="M9670 2390 c-5 -3 -9 -265 -9 -596 l0 -590 42 0 42 -1 0 436 c0 240
-4 442 -8 449 -5 6 -4 12 2 12 6 0 8 6 6 13 -8 19 -12 137 -5 137 4 0 13 -11
20 -25 7 -14 17 -25 22 -25 4 0 8 -6 8 -13 0 -7 9 -23 20 -35 11 -12 20 -24
20 -26 0 -9 103 -161 112 -164 4 -2 8 -8 8 -13 0 -12 122 -192 133 -197 4 -2
7 -10 7 -18 0 -8 5 -14 10 -14 6 0 10 -4 10 -10 0 -12 261 -404 272 -408 5 -2
8 -10 8 -18 0 -8 5 -14 10 -14 6 0 10 -5 10 -11 0 -29 36 -55 78 -56 l42 -1 0
593 c0 426 -3 594 -11 597 -6 2 -25 2 -43 0 l-31 -4 2 -436 c1 -240 3 -472 4
-515 1 -42 0 -80 -3 -82 -3 -3 -38 45 -79 107 -40 62 -91 137 -112 166 -21 28
-34 52 -30 52 4 0 3 4 -3 8 -6 4 -56 75 -111 157 -55 83 -128 191 -161 241
-34 50 -62 96 -62 102 0 6 -4 12 -9 14 -10 3 -121 168 -121 179 0 9 -78 16
-90 9z"/>
<path d="M10891 2390 c-5 -3 -8 -271 -8 -596 l0 -591 41 1 41 1 -1 470 c-1
259 -4 494 -6 523 -5 56 5 68 24 27 6 -14 15 -25 20 -25 4 0 8 -5 8 -10 0 -12
81 -134 92 -138 5 -2 8 -9 9 -15 0 -7 16 -32 34 -57 19 -25 42 -60 51 -77 9
-18 20 -33 25 -33 5 0 9 -7 9 -15 0 -8 5 -15 10 -15 6 0 10 -4 10 -9 0 -11
162 -255 172 -259 5 -2 8 -8 8 -12 0 -5 15 -30 33 -56 46 -66 65 -96 78 -121
7 -13 15 -23 19 -23 4 0 13 -13 20 -30 7 -16 16 -30 21 -30 5 0 9 -7 9 -15 0
-8 5 -15 10 -15 6 0 10 -6 10 -13 0 -25 41 -51 81 -54 l39 -2 0 594 c0 469 -3
595 -12 596 -21 3 -60 0 -65 -4 -5 -5 -4 -950 1 -999 2 -21 1 -38 -3 -38 -6 0
-112 154 -120 175 -2 5 -7 12 -11 15 -11 9 -70 101 -70 110 0 4 -3 10 -8 12
-10 4 -172 247 -172 258 0 4 -4 10 -8 12 -9 3 -152 214 -152 223 0 4 -6 12
-12 19 -7 7 -44 60 -82 117 -65 99 -70 104 -103 104 -19 0 -38 -2 -42 -5z"/>
<path d="M12106 2390 c-2 -3 -3 -270 -2 -595 l1 -590 326 -1 325 -1 -1 36 -1
36 -277 1 c-153 1 -281 4 -284 7 -7 8 -6 497 2 505 3 3 124 6 268 7 l262 0 0
35 -1 35 -267 3 c-245 2 -267 4 -267 20 -1 31 -1 316 -1 373 l1 56 276 -1
c152 -1 279 1 283 4 5 3 8 20 8 38 0 22 -5 32 -16 33 -67 4 -633 3 -635 -1z"/>
<path d="M13974 2391 c-2 -2 -4 -20 -4 -40 l0 -36 192 0 193 0 0 -555 0 -555
43 -1 c42 -1 42 -1 43 35 1 20 1 39 0 43 -2 14 -2 65 0 110 1 27 0 50 -2 53
-3 2 -2 30 1 60 3 31 2 58 -2 61 -5 3 -5 10 -2 16 8 13 9 96 1 104 -3 3 -3 16
1 28 4 11 6 41 5 66 -1 25 -2 79 -2 120 1 41 2 152 2 245 l2 170 190 1 190 0
2 37 c2 29 -2 37 -15 38 -74 3 -835 3 -838 0z"/>
</g>
</svg>
